<?xml version="1.0" encoding="utf-8"?>
<!-- Generator: Adobe Illustrator 23.0.1, SVG Export Plug-In . SVG Version: 6.00 Build 0)  -->
<svg version="1.1" id="Layer_1" xmlns="http://www.w3.org/2000/svg" xmlns:xlink="http://www.w3.org/1999/xlink" x="0px" y="0px"
	 viewBox="0 0 257.9 194.4" style="enable-background:new 0 0 257.9 194.4;" xml:space="preserve">
<style type="text/css">
	.st0{fill:#4D4D4D;}
	.st1{fill:url(#SVGID_1_);}
	.st2{opacity:0.3;fill:url(#SVGID_2_);enable-background:new    ;}
	.st3{opacity:0.3;fill:url(#SVGID_3_);enable-background:new    ;}
	.st4{opacity:0.53;fill:url(#SVGID_4_);enable-background:new    ;}
	.st5{fill:url(#SVGID_5_);}
	.st6{opacity:0.3;fill:url(#SVGID_6_);enable-background:new    ;}
	.st7{opacity:0.3;fill:url(#SVGID_7_);enable-background:new    ;}
</style>
<g id="BACKGROUND">
</g>
<g>
	<g>
		<g>
			<g>
				<ellipse class="st0" cx="129.1" cy="69.9" rx="79" ry="30.7"/>
			</g>
			<g>
				<ellipse class="st0" cx="129.1" cy="20.2" rx="38.9" ry="14"/>
			</g>
			<polygon class="st0" points="167.9,19.7 129,19.7 90.2,19.7 84,71.7 129,80.7 174.1,71.7 			"/>
			<g>
				<ellipse class="st0" cx="129.1" cy="69.9" rx="79" ry="30.7"/>
			</g>
			<g>
				<ellipse class="st0" cx="129.1" cy="20.2" rx="38.9" ry="14"/>
			</g>
			<polygon class="st0" points="167.9,19.7 129,19.7 90.2,19.7 84,71.7 129,80.7 174.1,71.7 			"/>
			<path class="st0" d="M128.7,103.7c0,0-30-1-46-6c0,0,5,16,11,21s24,4,25,4s5-11,10-11c5,0,9,11,10,11s19,1,25-4s11-21,11-21
				C158.7,102.7,128.7,103.7,128.7,103.7z"/>
			
				<linearGradient id="SVGID_1_" gradientUnits="userSpaceOnUse" x1="82.6529" y1="134.4533" x2="174.6529" y2="134.4533" gradientTransform="matrix(1 0 0 -1 0 244.6982)">
				<stop  offset="0" style="stop-color:#FFFFFF"/>
				<stop  offset="1" style="stop-color:#000000"/>
			</linearGradient>
			<path class="st1" d="M128.7,103.7c0,0-30-1-46-6c0,0,5,16,11,21s24,4,25,4s5-11,10-11c5,0,9,11,10,11s19,1,25-4s11-21,11-21
				C158.7,102.7,128.7,103.7,128.7,103.7z"/>
			<g>
				<path class="st0" d="M110.7,179.3c0,0-42.1-39.1-56.5-90.1c0,0-9,10-12.6,22C38.1,123.3,74,163.3,110.7,179.3z"/>
				<polygon class="st0" points="68.4,150.9 11.2,164.5 2.2,189.7 27.3,189.7 30.9,169.9 78.5,155.6 				"/>
			</g>
			<g>
				<path class="st0" d="M147.2,179.3c0,0,42.1-39.1,56.5-90.1c0,0,9,10,12.6,22C219.9,123.3,184,163.3,147.2,179.3z"/>
				<polygon class="st0" points="189.6,150.9 246.8,164.5 255.7,189.7 230.6,189.7 227,169.9 179.5,155.6 				"/>
			</g>
			
				<linearGradient id="SVGID_2_" gradientUnits="userSpaceOnUse" x1="113.3679" y1="258.9303" x2="112.3679" y2="155.9302" gradientTransform="matrix(1 0 0 -1 0 244.6982)">
				<stop  offset="0.4005" style="stop-color:#FFFFFF;stop-opacity:0"/>
				<stop  offset="1" style="stop-color:#FFFFFF"/>
			</linearGradient>
			<path class="st2" d="M122.1,24.5c0,0-0.3,0-0.8,0c-2.3,0-8.6-0.3-12-1.7L103.4,84c0,0,5.1,2.8,14.5,3.2L122.1,24.5z"/>
			
				<linearGradient id="SVGID_3_" gradientUnits="userSpaceOnUse" x1="94.4682" y1="156.3143" x2="94.1486" y2="123.3937" gradientTransform="matrix(1 0 0 -1 0 244.6982)">
				<stop  offset="0.4005" style="stop-color:#FFFFFF;stop-opacity:0"/>
				<stop  offset="1" style="stop-color:#FFFFFF"/>
			</linearGradient>
			<path class="st3" d="M102.9,120.9c0,0-5.4-0.7-9-4s-8.2-16.7-8.2-16.7s9,2.3,14.5,2.9C100.2,103.1,98.6,111.3,102.9,120.9z"/>
			
				<linearGradient id="SVGID_4_" gradientUnits="userSpaceOnUse" x1="169.3075" y1="256.357" x2="168.3968" y2="162.5626" gradientTransform="matrix(1 0 0 -1 0 244.6982)">
				<stop  offset="0.4005" style="stop-color:#FFFFFF;stop-opacity:0"/>
				<stop  offset="1" style="stop-color:#FFFFFF"/>
			</linearGradient>
			<path class="st4" d="M166.3,22.1l6.5,57.1c0,0-1.2,1.3-2.5,1.4L164.7,22L166.3,22.1L166.3,22.1z"/>
			
				<linearGradient id="SVGID_5_" gradientUnits="userSpaceOnUse" x1="167.9574" y1="156.7542" x2="167.6539" y2="125.4907" gradientTransform="matrix(1 0 0 -1 0 244.6982)">
				<stop  offset="0.4005" style="stop-color:#FFFFFF;stop-opacity:0"/>
				<stop  offset="1" style="stop-color:#FFFFFF"/>
			</linearGradient>
			<path class="st5" d="M162.2,118.7c0,0,5.3-3.2,11.2-19.4l-4,1.3C169.4,100.6,168.2,111.5,162.2,118.7z"/>
			
				<linearGradient id="SVGID_6_" gradientUnits="userSpaceOnUse" x1="63.4555" y1="164.8168" x2="62.6669" y2="83.5914" gradientTransform="matrix(1 0 0 -1 0 244.6982)">
				<stop  offset="0.4005" style="stop-color:#FFFFFF;stop-opacity:0"/>
				<stop  offset="1" style="stop-color:#FFFFFF"/>
			</linearGradient>
			<path class="st6" d="M82.7,160c0,0-21.9-17.3-37.6-51c0,0-1.3,1.7-1.9,5.6C42.7,118.6,58,143.9,82.7,160z"/>
			
				<linearGradient id="SVGID_7_" gradientUnits="userSpaceOnUse" x1="43.7468" y1="86.988" x2="0.7468" y2="43.988" gradientTransform="matrix(1 0 0 -1 0 244.6982)">
				<stop  offset="0.4005" style="stop-color:#FFFFFF;stop-opacity:0"/>
				<stop  offset="1" style="stop-color:#FFFFFF"/>
			</linearGradient>
			<polygon class="st7" points="68.5,152.5 12.2,165.8 4.3,188.3 11.1,188.3 16.9,168.1 70.7,154.3 			"/>
		</g>
	</g>
</g>
<g id="DESIGNED_BY_FREEPIK">
</g>
</svg>
